<svg viewBox="0 0 400 439" version="1.1" xmlns="http://www.w3.org/2000/svg" desc="Created with imagetracer.js version 1.2.6" class="height-100pct position-absolute top-0 width-100pct"><path fill="rgb(0,0,0)" stroke="rgb(0,0,0)" stroke-width="1" opacity="0.1607843137254902" d="M 66.5 0 L 74.5 0 L 85.5 2 L 107 10.5 L 105.5 11 Q 90.5 2 67.5 1 L 63 3.5 L 61.5 7 L 61 5.5 L 63.5 1 L 66.5 0 Z "></path><path fill="rgb(0,0,0)" stroke="rgb(0,0,0)" stroke-width="1" opacity="0.1607843137254902" d="M 351.5 3 L 366.5 3 L 369 4 L 372 12.5 L 376 30.5 L 377 54.5 L 372 80.5 Q 388.4 96.1 395 121.5 L 394 121.5 Q 386.7 95.8 370 79.5 L 375 62.5 L 376 39.5 L 372 16.5 L 366.5 4 L 352.5 4 L 330.5 10 L 286.5 33 L 268.5 28 L 244 24.5 L 250.5 24 L 288.5 32 L 318.5 14 L 335.5 7 L 351.5 3 Z "></path><path fill="rgb(0,0,0)" stroke="rgb(0,0,0)" stroke-width="1" opacity="0.1607843137254902" d="M 59.5 11 L 60 13.5 L 58.5 17 L 58 14.5 L 59.5 11 Z "></path><path fill="rgb(0,0,0)" stroke="rgb(0,0,0)" stroke-width="1" opacity="0.1607843137254902" d="M 114.5 14 L 117 15.5 L 115.5 15 L 114.5 14 Z "></path><path fill="rgb(0,0,0)" stroke="rgb(0,0,0)" stroke-width="1" opacity="0.1607843137254902" d="M 120.5 17 L 144.5 31 Q 161.3 24.8 183.5 24 L 183.5 25 L 163.5 27 L 143.5 32 L 121.5 19 L 120.5 17 Z "></path><path fill="rgb(0,0,0)" stroke="rgb(0,0,0)" stroke-width="1" opacity="0.1607843137254902" d="M 57.5 18 L 58 20.5 L 57 20.5 L 57.5 18 Z "></path><path fill="rgb(0,0,0)" stroke="rgb(0,0,0)" stroke-width="1" opacity="0.1607843137254902" d="M 56.5 22 L 57 25.5 L 56 25.5 L 56.5 22 Z "></path><path fill="rgb(0,0,0)" stroke="rgb(0,0,0)" stroke-width="1" opacity="0.1607843137254902" d="M 206.5 22 L 227 22.5 L 206.5 23 L 206.5 22 Z "></path><path fill="rgb(0,0,0)" stroke="rgb(0,0,0)" stroke-width="1" opacity="0.1607843137254902" d="M 185.5 23 L 195 23.5 L 185.5 24 L 185.5 23 Z "></path><path fill="rgb(0,0,0)" stroke="rgb(0,0,0)" stroke-width="1" opacity="0.1607843137254902" d="M 233.5 23 L 243 23.5 L 233.5 24 L 233.5 23 Z "></path><path fill="rgb(0,0,0)" stroke="rgb(0,0,0)" stroke-width="1" opacity="0.1607843137254902" d="M 55.5 27 L 56 31.5 L 55 31.5 L 55.5 27 Z "></path><path fill="rgb(0,0,0)" stroke="rgb(0,0,0)" stroke-width="1" opacity="0.1607843137254902" d="M 54.5 35 L 55 55.5 L 54 55.5 L 54.5 35 Z "></path><path fill="rgb(0,0,0)" stroke="rgb(0,0,0)" stroke-width="1" opacity="0.1607843137254902" d="M 55.5 58 L 60 78.5 Q 44.3 93.8 36 116.5 L 31 136.5 L 29.5 168 L 29 144.5 L 33 122.5 L 39 106.5 Q 46.9 89.9 59 77.5 L 59 75.5 Q 54.4 68.7 55.5 58 Z "></path><path fill="rgb(0,0,0)" stroke="rgb(0,0,0)" stroke-width="1" opacity="0.1607843137254902" d="M 395.5 123 L 397 129.5 L 396 129.5 L 395.5 123 Z "></path><path fill="rgb(0,0,0)" stroke="rgb(0,0,0)" stroke-width="1" opacity="0.1607843137254902" d="M 397.5 131 L 398 133.5 L 397 133.5 L 397.5 131 Z "></path><path fill="rgb(0,0,0)" stroke="rgb(0,0,0)" stroke-width="1" opacity="0.1607843137254902" d="M 398.5 136 L 399 140.5 L 398 140.5 L 398.5 136 Z "></path><path fill="rgb(0,0,0)" stroke="rgb(0,0,0)" stroke-width="1" opacity="0.1607843137254902" d="M 399.5 144 L 400 171.5 L 399 171.5 L 399.5 144 Z "></path><path fill="rgb(0,0,0)" stroke="rgb(0,0,0)" stroke-width="1" opacity="0.1607843137254902" d="M 30.5 169 L 31 179.5 L 30 179.5 L 30.5 169 Z "></path><path fill="rgb(0,0,0)" stroke="rgb(0,0,0)" stroke-width="1" opacity="0.1607843137254902" d="M 398.5 173 L 399 182.5 L 394 207.5 L 390.5 216 L 390 214.5 L 395 199.5 L 398.5 173 Z "></path><path fill="rgb(0,0,0)" stroke="rgb(0,0,0)" stroke-width="1" opacity="0.1607843137254902" d="M 31.5 182 L 32 186.5 L 31 186.5 L 31.5 182 Z "></path><path fill="rgb(0,0,0)" stroke="rgb(0,0,0)" stroke-width="1" opacity="0.1607843137254902" d="M 32.5 189 L 33 192.5 L 32 192.5 L 32.5 189 Z "></path><path fill="rgb(0,0,0)" stroke="rgb(0,0,0)" stroke-width="1" opacity="0.1607843137254902" d="M 33.5 195 L 34 197.5 L 33 197.5 L 33.5 195 Z "></path><path fill="rgb(0,0,0)" stroke="rgb(0,0,0)" stroke-width="1" opacity="0.1607843137254902" d="M 43.5 226 Q 51.8 245.7 66.5 259 Q 82.8 274.1 105.5 283 L 136.5 292 L 160 295 L 150.5 308 L 151 306.5 L 159 296.5 L 131.5 292 L 100.5 282 Q 75.5 271.5 59 252.5 L 47 235.5 L 43 227.5 L 43.5 226 Z "></path><path fill="rgb(0,0,0)" stroke="rgb(0,0,0)" stroke-width="1" opacity="0.1607843137254902" d="M 385.5 227 L 386 228.5 L 381.5 236 L 382 234.5 L 385.5 227 Z "></path><path fill="rgb(0,0,0)" stroke="rgb(0,0,0)" stroke-width="1" opacity="0.1607843137254902" d="M 380.5 237 L 380 238.5 L 378.5 241 L 379 239.5 L 380.5 237 Z "></path><path fill="rgb(0,0,0)" stroke="rgb(0,0,0)" stroke-width="1" opacity="0.1607843137254902" d="M 377.5 242 L 376 244.5 Q 369.9 255.5 360.5 263 Q 337.6 284.1 300.5 291 L 300.5 290 L 314.5 287 L 332.5 280 L 351.5 269 L 365 258 L 377.5 242 Z "></path><path fill="rgb(0,0,0)" stroke="rgb(0,0,0)" stroke-width="1" opacity="0.1607843137254902" d="M 7.5 279 L 17.5 279 L 28.5 282 Q 44.3 288.7 54 301.5 Q 62.3 317.7 75.5 329 Q 84.8 337.2 100 339.5 L 96.5 340 L 79.5 333 L 69 325 L 56 305.5 L 44.5 293 Q 32.7 280.3 8.5 280 L 1 283.5 L 1 287.5 L 8.5 295 L 12 297.5 L 9.5 296 L 3 292 L 0 287.5 L 0 283.5 L 7.5 279 Z "></path><path fill="rgb(0,0,0)" stroke="rgb(0,0,0)" stroke-width="1" opacity="0.1607843137254902" d="M 295.5 291 L 299 291.5 L 295.5 292 L 295.5 291 Z "></path><path fill="rgb(0,0,0)" stroke="rgb(0,0,0)" stroke-width="1" opacity="0.1607843137254902" d="M 291.5 292 L 294 292.5 L 291.5 293 L 291.5 292 Z "></path><path fill="rgb(0,0,0)" stroke="rgb(0,0,0)" stroke-width="1" opacity="0.1607843137254902" d="M 285.5 293 L 289 293.5 L 285.5 294 L 285.5 293 Z "></path><path fill="rgb(0,0,0)" stroke="rgb(0,0,0)" stroke-width="1" opacity="0.1607843137254902" d="M 278.5 294 L 282 294.5 L 278.5 295 L 278.5 294 Z "></path><path fill="rgb(0,0,0)" stroke="rgb(0,0,0)" stroke-width="1" opacity="0.1607843137254902" d="M 270.5 295 L 276 295.5 L 270.5 296 L 270.5 295 Z "></path><path fill="rgb(0,0,0)" stroke="rgb(0,0,0)" stroke-width="1" opacity="0.1607843137254902" d="M 267.5 296 Q 280.8 308.7 285 330.5 Q 283.5 336 286 337.5 L 286 382.5 L 285 382.5 L 285 338.5 L 284 337.5 L 283 326.5 Q 280.4 315.1 275 306.5 L 267 297.5 L 267.5 296 Z "></path><path fill="rgb(0,0,0)" stroke="rgb(0,0,0)" stroke-width="1" opacity="0.1607843137254902" d="M 13.5 298 L 26 308.5 L 39 327.5 L 48 348.5 Q 54.5 359.5 64.5 367 Q 76.5 376.5 94.5 380 Q 100 378.5 101.5 381 L 124.5 381 L 139.5 378 L 141 379.5 L 141 430.5 L 136.5 437 L 134.5 438 L 135.5 436 L 138 434.5 L 140 430.5 L 140 380 L 126.5 381 L 125.5 382 L 100.5 382 L 89.5 380 L 75.5 375 Q 62.1 368.4 53 357.5 L 46 347.5 Q 40.7 330.8 32 317.5 L 20.5 304 Q 14.5 301.7 13.5 298 Z "></path><path fill="rgb(0,0,0)" stroke="rgb(0,0,0)" stroke-width="1" opacity="0.1607843137254902" d="M 148.5 311 L 148 312.5 L 147.5 314 L 147 312.5 L 148.5 311 Z "></path><path fill="rgb(0,0,0)" stroke="rgb(0,0,0)" stroke-width="1" opacity="0.1607843137254902" d="M 146.5 315 L 147 316.5 L 145.5 319 L 145 317.5 L 146.5 315 Z "></path><path fill="rgb(0,0,0)" stroke="rgb(0,0,0)" stroke-width="1" opacity="0.1607843137254902" d="M 143.5 323 L 144 325.5 L 142 334 L 129.5 338 L 129.5 337 Q 137 336.5 141 332.5 L 143.5 323 Z "></path><path fill="rgb(0,0,0)" stroke="rgb(0,0,0)" stroke-width="1" opacity="0.1607843137254902" d="M 125.5 338 L 128 338.5 L 125.5 339 L 125.5 338 Z "></path><path fill="rgb(0,0,0)" stroke="rgb(0,0,0)" stroke-width="1" opacity="0.1607843137254902" d="M 120.5 339 L 124 339.5 L 120.5 340 L 120.5 339 Z "></path><path fill="rgb(0,0,0)" stroke="rgb(0,0,0)" stroke-width="1" opacity="0.1607843137254902" d="M 101.5 340 L 117 340.5 L 101.5 341 L 101.5 340 Z "></path><path fill="rgb(0,0,0)" stroke="rgb(0,0,0)" stroke-width="1" opacity="0.1607843137254902" d="M 284.5 398 L 285 429.5 L 284 429.5 L 284.5 398 Z "></path><path fill="rgb(0,0,0)" stroke="rgb(0,0,0)" stroke-width="1" opacity="0.1607843137254902" d="M 285.5 431 L 287 435 L 292.5 438 L 297 438.5 L 292.5 439 L 286 434.5 L 285.5 431 Z "></path><path fill="rgb(0,0,0)" stroke="rgb(0,0,0)" stroke-width="1" opacity="0.8352941176470589" d="M 67.5 1 L 84.5 3 L 107.5 11 L 144.5 32 L 153.5 29 L 167.5 27 L 167.5 28 L 142.5 33 Q 122.6 17.9 97.5 8 L 79.5 3 L 64 3 L 57 26.5 Q 58.5 32 56 33.5 L 56 57.5 L 58 67.5 L 61 74.5 L 61 78.5 Q 43.6 95.6 35.5 122 L 35 119.5 L 45 97.5 L 60 78.5 L 60 75.5 L 55 57.5 L 55 32.5 L 60 10.5 L 64.5 2 L 67.5 1 Z "></path><path fill="rgb(0,0,0)" stroke="rgb(0,0,0)" stroke-width="1" opacity="0.8352941176470589" d="M 352.5 4 L 366.5 4 L 368 5.5 L 366.5 5 L 352.5 5 L 336.5 9 Q 310.5 18.5 289.5 33 L 290.5 31 L 325.5 12 L 342.5 6 L 352.5 4 Z "></path><path fill="rgb(0,0,0)" stroke="rgb(0,0,0)" stroke-width="1" opacity="0.8352941176470589" d="M 370.5 13 L 372 18.5 L 371 18.5 L 370.5 13 Z "></path><path fill="rgb(0,0,0)" stroke="rgb(0,0,0)" stroke-width="1" opacity="0.8352941176470589" d="M 372.5 20 L 373 22.5 L 372 22.5 L 372.5 20 Z "></path><path fill="rgb(0,0,0)" stroke="rgb(0,0,0)" stroke-width="1" opacity="0.8352941176470589" d="M 195.5 23 L 204 23.5 L 195.5 24 L 195.5 23 Z "></path><path fill="rgb(0,0,0)" stroke="rgb(0,0,0)" stroke-width="1" opacity="0.8352941176470589" d="M 209.5 23 L 232.5 23 L 233.5 24 L 243.5 24 L 251 25.5 L 244.5 26 L 243.5 25 L 232.5 25 L 231.5 24 L 209.5 24 L 209.5 23 Z "></path><path fill="rgb(0,0,0)" stroke="rgb(0,0,0)" stroke-width="1" opacity="0.8352941176470589" d="M 184.5 24 L 189 24.5 L 184.5 25 L 184.5 24 Z "></path><path fill="rgb(0,0,0)" stroke="rgb(0,0,0)" stroke-width="1" opacity="0.8352941176470589" d="M 373.5 24 L 374 27.5 L 373 27.5 L 373.5 24 Z "></path><path fill="rgb(0,0,0)" stroke="rgb(0,0,0)" stroke-width="1" opacity="0.8352941176470589" d="M 176.5 25 L 180 25.5 L 176.5 26 L 176.5 25 Z "></path><path fill="rgb(0,0,0)" stroke="rgb(0,0,0)" stroke-width="1" opacity="0.8352941176470589" d="M 169.5 26 L 174 26.5 L 169.5 27 L 169.5 26 Z "></path><path fill="rgb(0,0,0)" stroke="rgb(0,0,0)" stroke-width="1" opacity="0.8352941176470589" d="M 252.5 26 L 258 26.5 L 252.5 27 L 252.5 26 Z "></path><path fill="rgb(0,0,0)" stroke="rgb(0,0,0)" stroke-width="1" opacity="0.8352941176470589" d="M 259.5 27 L 264 27.5 L 259.5 28 L 259.5 27 Z "></path><path fill="rgb(0,0,0)" stroke="rgb(0,0,0)" stroke-width="1" opacity="0.8352941176470589" d="M 265.5 28 L 269 28.5 L 265.5 29 L 265.5 28 Z "></path><path fill="rgb(0,0,0)" stroke="rgb(0,0,0)" stroke-width="1" opacity="0.8352941176470589" d="M 270.5 29 L 273 29.5 L 270.5 30 L 270.5 29 Z "></path><path fill="rgb(0,0,0)" stroke="rgb(0,0,0)" stroke-width="1" opacity="0.8352941176470589" d="M 275.5 30 L 278 30.5 L 275.5 31 L 275.5 30 Z "></path><path fill="rgb(0,0,0)" stroke="rgb(0,0,0)" stroke-width="1" opacity="0.8352941176470589" d="M 374.5 30 L 375 34.5 L 374 34.5 L 374.5 30 Z "></path><path fill="rgb(0,0,0)" stroke="rgb(0,0,0)" stroke-width="1" opacity="0.8352941176470589" d="M 279.5 31 L 282 31.5 L 279.5 32 L 279.5 31 Z "></path><path fill="rgb(0,0,0)" stroke="rgb(0,0,0)" stroke-width="1" opacity="0.8352941176470589" d="M 283.5 32 L 286 32.5 L 283.5 33 L 283.5 32 Z "></path><path fill="rgb(0,0,0)" stroke="rgb(0,0,0)" stroke-width="1" opacity="0.8352941176470589" d="M 375.5 39 L 376 54.5 L 375 54.5 L 375.5 39 Z "></path><path fill="rgb(0,0,0)" stroke="rgb(0,0,0)" stroke-width="1" opacity="0.8352941176470589" d="M 374.5 58 L 375 62.5 L 370 79.5 Q 387 96.5 395 122.5 L 399 141.5 L 399 172.5 L 398 172.5 L 398 141.5 L 394 122.5 L 384 99.5 L 369 78.5 L 372 71.5 L 374.5 58 Z "></path><path fill="rgb(0,0,0)" stroke="rgb(0,0,0)" stroke-width="1" opacity="0.8352941176470589" d="M 34.5 123 L 35 125.5 L 33.5 129 L 33 126.5 L 34.5 123 Z "></path><path fill="rgb(0,0,0)" stroke="rgb(0,0,0)" stroke-width="1" opacity="0.8352941176470589" d="M 32.5 131 L 33 133.5 L 32 133.5 L 32.5 131 Z "></path><path fill="rgb(0,0,0)" stroke="rgb(0,0,0)" stroke-width="1" opacity="0.8352941176470589" d="M 31.5 136 L 32 140.5 L 31 140.5 L 31.5 136 Z "></path><path fill="rgb(0,0,0)" stroke="rgb(0,0,0)" stroke-width="1" opacity="0.8352941176470589" d="M 30.5 145 L 31 168.5 L 30 168.5 L 30.5 145 Z "></path><path fill="rgb(0,0,0)" stroke="rgb(0,0,0)" stroke-width="1" opacity="0.8352941176470589" d="M 31.5 171 L 33 188.5 L 37 206.5 L 36 206.5 L 31 181.5 L 31.5 171 Z "></path><path fill="rgb(0,0,0)" stroke="rgb(0,0,0)" stroke-width="1" opacity="0.8352941176470589" d="M 397.5 175 L 398 182.5 L 397 182.5 L 397.5 175 Z "></path><path fill="rgb(0,0,0)" stroke="rgb(0,0,0)" stroke-width="1" opacity="0.8352941176470589" d="M 396.5 185 L 397 189.5 L 396 189.5 L 396.5 185 Z "></path><path fill="rgb(0,0,0)" stroke="rgb(0,0,0)" stroke-width="1" opacity="0.8352941176470589" d="M 395.5 191 L 396 194.5 L 395 194.5 L 395.5 191 Z "></path><path fill="rgb(0,0,0)" stroke="rgb(0,0,0)" stroke-width="1" opacity="0.8352941176470589" d="M 394.5 197 L 395 199.5 L 394 199.5 L 394.5 197 Z "></path><path fill="rgb(0,0,0)" stroke="rgb(0,0,0)" stroke-width="1" opacity="0.8352941176470589" d="M 37.5 208 L 39 213.5 L 38 213.5 L 37.5 208 Z "></path><path fill="rgb(0,0,0)" stroke="rgb(0,0,0)" stroke-width="1" opacity="0.8352941176470589" d="M 41.5 220 L 43 223.5 L 42 223.5 L 41.5 220 Z "></path><path fill="rgb(0,0,0)" stroke="rgb(0,0,0)" stroke-width="1" opacity="0.8352941176470589" d="M 382.5 232 L 382 233.5 L 378 241.5 L 365 258 L 345.5 273 L 325.5 283 L 299.5 291 L 267 296 L 276 308.5 L 274 307.5 L 266 297.5 L 266 295 L 299.5 290 L 327.5 281 Q 354 270 371 249.5 L 382.5 232 Z "></path><path fill="rgb(0,0,0)" stroke="rgb(0,0,0)" stroke-width="1" opacity="0.8352941176470589" d="M 47.5 233 Q 57.1 249.9 71.5 262 Q 86.6 274.9 107 282.5 L 105.5 283 Q 81.8 273.8 65 257.5 L 51 240.5 L 47.5 233 Z "></path><path fill="rgb(0,0,0)" stroke="rgb(0,0,0)" stroke-width="1" opacity="0.8352941176470589" d="M 8.5 280 L 18 280.5 L 8.5 281 L 8.5 280 Z "></path><path fill="rgb(0,0,0)" stroke="rgb(0,0,0)" stroke-width="1" opacity="0.8352941176470589" d="M 4.5 281 L 6 281.5 L 2 284.5 Q 2.7 290.9 7.5 293 Q 19.6 299.4 28 309.5 Q 41.1 324.9 48 346.5 L 62.5 364 Q 76.4 376.1 99 379.5 L 94.5 380 Q 66.5 374 52 354.5 L 35 320.5 L 20.5 303 Q 9 297 1 287.5 Q 0 283 2.5 282 L 4.5 281 Z "></path><path fill="rgb(0,0,0)" stroke="rgb(0,0,0)" stroke-width="1" opacity="0.8352941176470589" d="M 20.5 281 L 23 281.5 L 20.5 282 L 20.5 281 Z "></path><path fill="rgb(0,0,0)" stroke="rgb(0,0,0)" stroke-width="1" opacity="0.8352941176470589" d="M 27.5 283 Q 42.8 288.7 52 300.5 L 69 325 L 79.5 333 L 89.5 338 L 101.5 341 L 116.5 341 L 131.5 338 L 142 334 L 147 314.5 L 160 295 L 142 292.5 L 146.5 292 L 147.5 293 L 161 294 L 161 296.5 Q 153.1 304.1 148 314.5 L 145 322.5 L 143 335 L 123.5 341 L 101.5 342 Q 77.1 337.9 65 321.5 Q 57.4 307.1 46.5 296 Q 39.1 287.9 27.5 284 L 27.5 283 Z "></path><path fill="rgb(0,0,0)" stroke="rgb(0,0,0)" stroke-width="1" opacity="0.8352941176470589" d="M 120.5 287 L 123 287.5 L 120.5 288 L 120.5 287 Z "></path><path fill="rgb(0,0,0)" stroke="rgb(0,0,0)" stroke-width="1" opacity="0.8352941176470589" d="M 124.5 288 L 127 288.5 L 124.5 289 L 124.5 288 Z "></path><path fill="rgb(0,0,0)" stroke="rgb(0,0,0)" stroke-width="1" opacity="0.8352941176470589" d="M 128.5 289 L 131 289.5 L 128.5 290 L 128.5 289 Z "></path><path fill="rgb(0,0,0)" stroke="rgb(0,0,0)" stroke-width="1" opacity="0.8352941176470589" d="M 132.5 290 L 135 290.5 L 132.5 291 L 132.5 290 Z "></path><path fill="rgb(0,0,0)" stroke="rgb(0,0,0)" stroke-width="1" opacity="0.8352941176470589" d="M 136.5 291 L 141 291.5 L 136.5 292 L 136.5 291 Z "></path><path fill="rgb(0,0,0)" stroke="rgb(0,0,0)" stroke-width="1" opacity="0.8352941176470589" d="M 277.5 312 L 282 322.5 L 285 338.5 L 285 397.5 L 284 398.5 L 284 429.5 L 288.5 437 L 292 438.5 L 290.5 439 L 285 434.5 L 283 429.5 L 283 394.5 L 284 393.5 L 284 341.5 L 283 340.5 L 282 326.5 L 277.5 312 Z "></path><path fill="rgb(0,0,0)" stroke="rgb(0,0,0)" stroke-width="1" opacity="0.8352941176470589" d="M 140.5 377 L 142 378.5 L 142 430.5 Q 140.6 436.6 135.5 439 L 133 438.5 L 140 433.5 L 141 430.5 L 141 379.5 L 140.5 377 Z "></path><path fill="rgb(0,0,0)" stroke="rgb(0,0,0)" stroke-width="1" opacity="0.8352941176470589" d="M 135.5 378 L 139 378.5 L 135.5 379 L 135.5 378 Z "></path><path fill="rgb(0,0,0)" stroke="rgb(0,0,0)" stroke-width="1" opacity="0.8352941176470589" d="M 128.5 379 L 133 379.5 L 128.5 380 L 128.5 379 Z "></path><path fill="rgb(0,0,0)" stroke="rgb(0,0,0)" stroke-width="1" opacity="0.8352941176470589" d="M 101.5 380 L 112 380.5 L 101.5 381 L 101.5 380 Z "></path><path fill="rgb(0,0,0)" stroke="rgb(0,0,0)" stroke-width="1" opacity="0.8352941176470589" d="M 115.5 380 L 125 380.5 L 115.5 381 L 115.5 380 Z "></path><path fill="rgb(0,0,0)" stroke="rgb(0,0,0)" stroke-width="1" opacity="1" d="M 64 3 L 79.5 3 L 97.5 8 L 115.5 16 L 142.5 33 L 144.5 33 L 153.5 30 L 180.5 25 L 208.5 23 L 209.5 24 L 231.5 24 L 232.5 25 L 251.5 26 L 274.5 30 L 287.5 34 Q 309.6 19.1 336.5 9 L 352.5 5 L 366.5 5 L 370 12.5 L 374 28.5 Q 372.5 34 375 35.5 L 375 57.5 L 369 79.5 Q 385.8 96.7 394 122.5 L 398 141.5 L 398 174.5 L 397 175.5 L 397 184.5 L 394 201.5 L 387 223.5 Q 376.3 247.3 357.5 263 Q 342.4 275.4 322.5 283 L 299.5 290 L 266 295 L 266 297.5 Q 272.9 303.1 277 311.5 L 283 331.5 L 283 340.5 L 284 341.5 L 284 393.5 L 283 394.5 L 283 429.5 Q 284.3 435.3 288.5 438 L 290 438.5 L 136.5 439 L 141 433.5 L 142 430.5 L 142 378.5 Q 140.8 375.8 139.5 378 L 112.5 381 L 111.5 380 L 94.5 379 L 76.5 373 Q 63.7 366.8 55 356.5 L 48 346.5 L 36 320.5 Q 29.2 309.3 19.5 301 L 3 288.5 L 2 284.5 L 6.5 281 L 19.5 281 Q 38.1 285.9 49 298.5 L 65 321.5 L 73.5 330 Q 82.3 337.7 95.5 341 L 117.5 342 L 128.5 340 L 143 335 L 145 322.5 L 148 314.5 Q 153.1 304.1 161 296.5 L 161 294 Q 93.1 289.2 59 249.5 Q 43.9 232.6 37 207.5 L 32 181.5 L 32 171.5 L 31 170.5 L 31 141.5 L 32 140.5 L 33 129.5 L 40 109.5 Q 47.9 91.4 61 78.5 L 61 74.5 L 58 67.5 L 56 57.5 L 56 33.5 L 59 17.5 L 64 3 Z "></path><path fill="rgb(0,0,0)" stroke="rgb(0,0,0)" stroke-width="1" opacity="0" d="M 0 0 L 66 0.5 L 62 2.5 L 55 27.5 L 54 55.5 L 55 56.5 L 56 68.5 L 59 77.5 Q 44.4 92.4 36 113.5 L 30 136.5 Q 31.8 142.7 29 144.5 L 29 167.5 L 30 168.5 L 30 179.5 L 31 180.5 L 33 197.5 L 40 220.5 Q 50.1 246.4 69.5 263 Q 84.9 276.1 105.5 284 L 131.5 292 L 159 296.5 Q 151.4 302.9 147 312.5 L 142 326.5 L 142 330.5 L 139.5 334 L 119.5 340 L 100.5 340 Q 77.9 335.1 66 319.5 Q 56.9 302.1 42.5 290 L 22.5 280 L 7.5 279 L 0.5 283 L 0 0 Z "></path><path fill="rgb(0,0,0)" stroke="rgb(0,0,0)" stroke-width="1" opacity="0" d="M 75.5 0 L 400 0 L 400 143.5 L 399 143.5 L 399 136.5 L 397 126.5 L 393 113.5 Q 385.5 94 372 80.5 L 372 76.5 L 376 63.5 L 377 38.5 L 376 37.5 L 375 24.5 L 369 4 L 366.5 3 L 351.5 3 L 338.5 6 L 318.5 14 L 288.5 32 L 286.5 32 L 273.5 28 L 250.5 24 L 227.5 23 L 226.5 22 L 206.5 22 L 205.5 23 L 176.5 24 L 153.5 28 L 143.5 31 Q 124.9 17.6 102.5 8 L 85.5 2 L 75.5 1 L 75.5 0 Z "></path><path fill="rgb(0,0,0)" stroke="rgb(0,0,0)" stroke-width="1" opacity="0" d="M 399.5 172 L 400 439 L 297.5 439 L 292.5 438 L 287 435 L 285 430.5 L 285 383.5 L 286 382.5 L 286 337.5 L 281 316.5 Q 276.3 304.7 268 296.5 L 303.5 291 L 328.5 283 Q 353.5 272.5 370 253.5 L 383 234.5 L 392 213.5 L 397 195.5 L 399.5 172 Z "></path><path fill="rgb(0,0,0)" stroke="rgb(0,0,0)" stroke-width="1" opacity="0" d="M 0.5 288 L 3 292 Q 15.3 298.5 25 308.5 Q 38.8 324.7 46 347.5 Q 52.3 358.3 61.5 366 Q 72.8 375.7 89.5 380 L 100.5 382 L 125.5 382 L 126.5 381 L 140 380 L 140 430.5 L 136.5 436 L 130.5 439 L 0 439 L 0.5 288 Z "></path></svg>